<svg xmlns="http://www.w3.org/2000/svg" width="606.695" height="462.294" viewBox="0 0 606.695 462.294"><g transform="translate(-641.958 -398.18)"><g transform="translate(1183.247 500.914)"><path d="M994.693,543.553l-22.98,17.019-42.427-30.825,22.98-17.019Z" transform="translate(-929.287 -512.728)" fill="#e4e4ea"/></g><g transform="translate(1103.77 558.642)"><path d="M955.588,571.956l-22.98,17.019-42.427-30.825,22.98-17.019Z" transform="translate(-890.182 -541.132)" fill="#e4e4ea"/></g><g transform="translate(796.324 782.002)"><path d="M804.316,681.856l-22.98,17.019L738.91,668.05l22.98-17.019Z" transform="translate(-738.91 -651.031)" fill="#e4e4ea"/></g><g transform="translate(947.284 672.453)"><path d="M878.593,627.955l-22.98,17.019-42.427-30.825,22.98-17.019Z" transform="translate(-813.187 -597.13)" fill="#e4e4ea"/></g><g transform="translate(992.221 475.911)"><path d="M927.585,550.782,904.606,567.8,835.3,517.445l22.98-17.019Z" transform="translate(-835.297 -500.426)" fill="#e4e4ea"/></g><g transform="translate(1071.485 418.398)"><g transform="translate(0 0)"><path d="M966.573,522.483l-22.967,17.009L874.3,489.137l22.967-17.009Z" transform="translate(-874.297 -472.128)" fill="#e4e4ea"/></g></g><g transform="translate(914.993 532.213)"><path d="M889.587,578.484,866.608,595.5,797.3,545.147l22.98-17.019Z" transform="translate(-797.299 -528.128)" fill="#e4e4ea"/></g><g transform="translate(835.718 589.722)"><path d="M850.582,606.78,827.6,623.8l-69.309-50.356,22.979-17.019Z" transform="translate(-758.293 -556.424)" fill="#e4e4ea"/></g><g transform="translate(641.958 398.18)"><g transform="translate(386.823)"><g transform="translate(0.466)"><path d="M896.058,462.18l69.533,51.5-42.543,30.909-69.534-51.5Z" transform="translate(-853.515 -462.18)" fill="#d4004e"/></g><g transform="translate(69.534 51.497)"><path d="M930.507,487.518l-.466,35.909L887.5,554.336l.466-35.908Z" transform="translate(-887.498 -487.518)" fill="#b70043"/></g><g transform="translate(0 30.909)"><path d="M923.285,528.885l-.466,35.909-69.533-51.5.466-35.909Z" transform="translate(-853.286 -477.388)" fill="#9e003a"/></g></g><g transform="translate(307.186 57.86)"><g transform="translate(0.466)"><path d="M856.874,490.648l69.533,51.5-42.543,30.909-69.534-51.5Z" transform="translate(-814.331 -490.648)" fill="#d4004e"/></g><g transform="translate(69.534 51.497)"><path d="M891.323,515.987l-.466,35.908L848.314,582.8l.465-35.909Z" transform="translate(-848.314 -515.987)" fill="#b70043"/></g><g transform="translate(0 30.909)"><path d="M884.1,557.354l-.466,35.908-69.534-51.5.465-35.909Z" transform="translate(-814.102 -505.857)" fill="#9e003a"/></g></g><g transform="translate(229.814 114.065)"><g transform="translate(0.466)"><path d="M818.818,518.3l69.533,51.5L845.8,600.719l-69.534-51.5Z" transform="translate(-776.262 -518.303)" fill="#d4004e"/></g><g transform="translate(69.534 51.497)"><path d="M853.266,543.641l-.466,35.909-42.556,30.919.466-35.909Z" transform="translate(-810.245 -543.641)" fill="#b70043"/></g><g transform="translate(0 30.919)"><path d="M846.032,585.013l-.466,35.909-69.534-51.5.466-35.909Z" transform="translate(-776.033 -533.516)" fill="#9e003a"/></g></g><g transform="translate(150.862 171.426)"><g transform="translate(0.466)"><path d="M779.971,546.526l69.534,51.5-42.556,30.919-69.533-51.5Z" transform="translate(-737.416 -546.526)" fill="#d4004e"/></g><g transform="translate(69.534 51.497)"><path d="M814.42,571.864l-.466,35.909L771.4,638.691l.466-35.909Z" transform="translate(-771.399 -571.864)" fill="#b70043"/></g><g transform="translate(0 30.919)"><path d="M807.186,613.236l-.466,35.909-69.533-51.5.466-35.908Z" transform="translate(-737.186 -561.739)" fill="#9e003a"/></g></g><g transform="translate(498.839 82.96)"><g transform="translate(0.466)"><path d="M951.173,503l42.5,31.473L951.125,565.38l-42.5-31.473Z" transform="translate(-908.63 -502.998)" fill="#d4004e"/></g><g transform="translate(42.496 31.473)"><path d="M972.318,518.484l-.466,35.909L929.31,585.3l.465-35.909Z" transform="translate(-929.31 -518.484)" fill="#b70043"/></g><g transform="translate(0 30.909)"><path d="M951.362,549.679l-.466,35.909-42.5-31.472.466-35.909Z" transform="translate(-908.401 -518.207)" fill="#9e003a"/></g></g><g transform="translate(341.83 140.82)"><g transform="translate(0.466)"><path d="M951.292,531.467l42.5,31.473L873.872,650.063l-42.5-31.472Z" transform="translate(-831.377 -531.467)" fill="#d4004e"/></g><g transform="translate(42.496 31.473)"><path d="M972.438,546.952l-.466,35.909L852.057,669.985l.466-35.908Z" transform="translate(-852.057 -546.952)" fill="#b70043"/></g><g transform="translate(0 87.124)"><path d="M874.109,605.807l-.466,35.908-42.5-31.473.466-35.908Z" transform="translate(-831.148 -574.334)" fill="#9e003a"/></g></g><g transform="translate(73.503 227.64)"><g transform="translate(197.055 58.219)"><path d="M873.918,602.83l-.466,35.909L796.08,694.953l.466-35.908Z" transform="translate(-796.08 -602.83)" fill="#b70043"/></g><g transform="translate(112.016 82.96)"><path d="M797.247,615l-.466,35.909-42.543,30.909.466-35.908Z" transform="translate(-754.239 -615.004)" fill="#b70043"/></g><g transform="translate(0 30.909)"><path d="M854.1,703.826l-.466,35.909L699.124,625.3l.466-35.909Z" transform="translate(-699.124 -589.393)" fill="#9e003a"/></g><g transform="translate(112.482 26.746)"><path d="M874.383,587.345l42.5,31.473-77.372,56.214-42.543,30.909-42.5-31.473,42.543-30.909Z" transform="translate(-754.468 -587.345)" fill="#d4004e"/></g><g transform="translate(154.512 114.433)"><path d="M818.156,630.489l-.466,35.909-42.543,30.909.466-35.909Z" transform="translate(-775.148 -630.489)" fill="#b70043"/></g><g transform="translate(0.466)"><path d="M741.9,574.185l112.016,82.96-42.543,30.91,42.5,31.472,42.543-30.909-42.543,30.909L699.353,605.094Z" transform="translate(-699.353 -574.185)" fill="#d4004e"/></g><g transform="translate(112.016 113.87)"><path d="M797.2,661.685l-.466,35.909-42.5-31.473.466-35.909Z" transform="translate(-754.239 -630.212)" fill="#9e003a"/></g><g transform="translate(154.512 114.433)"><path d="M818.156,630.489l-.466,35.909-42.543,30.909.466-35.909Z" transform="translate(-775.148 -630.489)" fill="#b70043"/></g></g><g transform="translate(0 281.034)"><g transform="translate(0.466)"><path d="M705.744,600.456,860.255,714.889,817.7,745.808,663.187,631.375Z" transform="translate(-663.187 -600.456)" fill="#d4004e"/></g><g transform="translate(154.512 114.433)"><path d="M782,656.76l-.465,35.909-42.557,30.919.466-35.909Z" transform="translate(-738.982 -656.76)" fill="#b70043"/></g><g transform="translate(0 30.919)"><path d="M817.936,730.1l-.466,35.909L662.958,651.578l.466-35.908Z" transform="translate(-662.958 -615.669)" fill="#9e003a"/></g></g></g></g></svg>