<svg xmlns="http://www.w3.org/2000/svg" width="98.151" height="81.586" viewBox="0 0 98.151 81.586"><g transform="translate(-902.079 -87.521)"><g transform="translate(941.668 101.579)"><path d="M1022.759,129.636l-18.229,13.5,18.968,13.781-20.141,14.917-38.42-27.914,38.37-28.417Z" transform="translate(-964.936 -115.503)" fill="#e4e4ea"/></g><g transform="translate(902.079 87.521)"><g transform="translate(20.093)"><path d="M972,102.178,951.855,117.1,931.68,102.441l20.146-14.92Z" transform="translate(-931.68 -87.521)" fill="#b1b1b1"/><g transform="translate(20.174 14.657)"><path d="M981.547,109.114l.3,23.066L961.7,147.1l-.3-23.066Z" transform="translate(-961.401 -109.114)" fill="#929292"/></g><g transform="translate(0 14.92)"><path d="M951.855,124.158l.3,23.066-20.174-14.657-.3-23.066Z" transform="translate(-931.68 -109.501)" fill="#bebebe"/></g></g><g transform="translate(0 28.942)"><path d="M942.4,157.879,922.254,172.8l-20.174-14.658,20.146-14.92Z" transform="translate(-902.079 -143.221)" fill="#b1b1b1"/><g transform="translate(20.174 14.658)"><path d="M951.946,164.815l.3,23.066L932.1,202.8l-.3-23.066Z" transform="translate(-931.8 -164.815)" fill="#929292"/></g><g transform="translate(0 14.92)"><path d="M922.254,179.859l.3,23.066-20.175-14.658-.3-23.066Z" transform="translate(-902.079 -165.202)" fill="#bebebe"/></g></g><g transform="translate(40.321 28.942)"><path d="M1001.8,157.879,981.654,172.8,961.48,158.142l20.146-14.92Z" transform="translate(-961.48 -143.222)" fill="#b1b1b1"/><g transform="translate(20.174 14.657)"><path d="M1011.346,164.815l.3,23.066L991.5,202.8l-.3-23.066Z" transform="translate(-991.2 -164.815)" fill="#929292"/></g><g transform="translate(0 14.92)"><path d="M981.654,179.859l.3,23.066-20.174-14.657-.3-23.066Z" transform="translate(-961.48 -165.202)" fill="#bebebe"/></g></g></g></g></svg>